<?xml version="1.0" standalone="no"?>
<!DOCTYPE svg PUBLIC "-//W3C//DTD SVG 20010904//EN"
 "http://www.w3.org/TR/2001/REC-SVG-20010904/DTD/svg10.dtd">
<svg version="1.0" xmlns="http://www.w3.org/2000/svg"
 width="16.000000pt" height="16.000000pt" viewBox="0 0 16.000000 16.000000"
 preserveAspectRatio="xMidYMid meet">
<metadata>
Created by potrace 1.11, written by Peter Selinger 2001-2013
</metadata>
<g transform="translate(0.000000,16.000000) scale(0.010811,-0.010811)"
fill="#000000" stroke="none">
<path d="M382 1222 c-80 -29 -131 -79 -162 -162 -20 -51 -21 -70 -18 -340 3
-269 4 -287 24 -325 31 -57 79 -104 133 -129 44 -20 60 -21 341 -21 278 0 298
1 340 21 62 29 116 88 141 154 19 51 20 72 17 340 -3 321 -4 325 -85 401 -77
74 -76 74 -393 77 -256 2 -290 0 -338 -16z m650 -75 c31 -18 57 -44 75 -75
l28 -47 0 -285 0 -285 -28 -47 c-18 -31 -44 -57 -75 -75 l-47 -28 -285 0 -285
0 -47 28 c-31 18 -57 44 -75 75 l-28 47 0 285 0 285 27 47 c28 46 75 83 126
98 15 4 149 7 297 6 l270 -1 47 -28z"/>
<path d="M505 1001 c-3 -2 -5 -121 -5 -263 l0 -259 32 3 33 3 0 155 c0 85 -2
179 -5 208 -7 63 3 67 23 10 71 -210 121 -328 137 -328 11 0 22 11 28 28 74
206 125 339 134 347 8 7 9 6 4 -2 -6 -10 -12 -360 -7 -410 1 -7 14 -13 31 -13
l30 0 0 263 0 264 -34 -1 c-19 -1 -38 -5 -42 -9 -5 -4 -38 -92 -75 -195 -37
-103 -70 -180 -73 -172 -3 8 -24 67 -47 130 -94 264 -85 248 -125 247 -19 -1
-37 -3 -39 -6z"/>
</g>
</svg>
