<?xml version="1.0" standalone="no"?>
<!DOCTYPE svg PUBLIC "-//W3C//DTD SVG 20010904//EN"
 "http://www.w3.org/TR/2001/REC-SVG-20010904/DTD/svg10.dtd">
<svg version="1.0" xmlns="http://www.w3.org/2000/svg"
 width="16.000000pt" height="16.000000pt" viewBox="0 0 16.000000 16.000000"
 preserveAspectRatio="xMidYMid meet">
<metadata>
Created by potrace 1.11, written by Peter Selinger 2001-2013
</metadata>
<g transform="translate(0.000000,16.000000) scale(0.008000,-0.008000)"
fill="#000000" stroke="none">
<path d="M700 1491 c-72 -22 -135 -76 -173 -146 -21 -39 -22 -51 -22 -345 0
-294 1 -306 22 -345 30 -56 80 -104 133 -129 42 -20 65 -21 327 -23 260 -3
287 -1 335 17 61 22 119 75 151 134 21 40 22 52 22 346 0 293 -1 307 -21 345
-29 54 -75 100 -126 127 -42 22 -52 23 -333 25 -159 1 -301 -2 -315 -6z m611
-73 c42 -19 82 -57 106 -101 15 -28 18 -68 19 -310 1 -275 1 -279 -23 -327
-26 -52 -79 -95 -134 -110 -19 -4 -153 -8 -299 -6 -288 2 -296 3 -356 63 -58
58 -61 78 -60 381 2 294 3 303 53 357 63 68 84 72 391 71 220 -2 273 -5 303
-18z"/>
<path d="M806 1252 c-3 -10 -5 -128 -4 -264 l0 -248 32 0 32 0 -2 205 c-1 113
-5 213 -9 223 -3 9 -3 13 1 9 4 -3 38 -90 75 -193 37 -102 70 -189 74 -192 18
-18 45 32 104 191 36 96 70 179 75 184 5 4 6 -2 2 -14 -6 -18 -11 -330 -7
-395 1 -13 10 -18 31 -18 l30 0 0 263 0 263 -39 0 -38 0 -53 -145 c-30 -80
-61 -168 -71 -196 -10 -31 -19 -44 -23 -35 -16 44 -86 241 -97 275 -7 22 -17
44 -21 50 -4 5 -8 17 -8 27 0 20 0 20 -47 24 -23 1 -34 -3 -37 -14z"/>
</g>
</svg>
