<?xml version="1.0" standalone="no"?>
<!DOCTYPE svg PUBLIC "-//W3C//DTD SVG 20010904//EN"
 "http://www.w3.org/TR/2001/REC-SVG-20010904/DTD/svg10.dtd">
<svg version="1.0" xmlns="http://www.w3.org/2000/svg"
 width="16.000000pt" height="16.000000pt" viewBox="0 0 16.000000 16.000000"
 preserveAspectRatio="xMidYMid meet">
<metadata>
Created by potrace 1.11, written by Peter Selinger 2001-2013
</metadata>
<g transform="translate(0.000000,16.000000) scale(0.008000,-0.008000)"
fill="#000000" stroke="none">
<path d="M548 1670 c-15 -4 -29 -5 -32 -2 -3 3 -6 0 -6 -6 0 -6 -16 -16 -35
-22 -19 -6 -35 -16 -35 -21 0 -5 -6 -9 -13 -9 -28 0 -132 -137 -132 -175 0 -5
-4 -13 -10 -17 -6 -5 -11 -151 -13 -395 -3 -423 -1 -442 56 -528 14 -22 25
-43 24 -47 -1 -5 2 -8 7 -8 5 0 22 -12 38 -27 17 -16 43 -35 59 -43 16 -8 38
-21 48 -30 17 -13 18 -13 11 0 -8 13 -7 13 10 0 15 -13 76 -15 409 -15 392 0
449 2 440 17 -3 4 2 9 10 9 28 2 30 4 66 28 42 30 100 89 100 102 0 6 5 7 10
4 6 -4 10 -3 9 2 -2 16 13 53 23 53 5 0 6 5 3 10 -4 6 -1 17 5 25 7 8 9 15 5
15 -4 0 -2 6 4 13 8 10 10 127 7 408 -3 402 -4 419 -16 419 -4 0 -13 20 -20
45 -7 24 -16 42 -21 39 -5 -3 -9 0 -9 6 0 16 -101 110 -117 110 -7 0 -13 5
-13 11 0 5 -4 8 -9 4 -5 -3 -15 0 -23 7 -7 7 -20 15 -28 18 -26 9 -784 9 -812
0z m235 -83 c-4 -6 -1 -7 8 -1 21 13 160 14 152 1 -4 -6 -1 -7 8 -1 17 11 359
12 359 1 0 -4 3 -6 8 -5 32 9 173 -89 165 -114 -2 -5 1 -8 6 -8 10 0 30 -48
39 -90 3 -14 5 -182 6 -375 0 -382 -4 -418 -59 -478 -14 -15 -22 -27 -18 -27
9 0 -45 -35 -93 -60 -17 -9 -39 -15 -48 -14 -9 1 -16 -1 -16 -4 0 -4 -110 -7
-244 -8 -155 0 -243 3 -239 9 4 6 1 7 -8 1 -20 -13 -113 -13 -121 0 -6 8 -8 7
-8 -1 0 -26 -151 3 -193 37 -6 5 -27 21 -44 36 -18 14 -33 32 -33 40 0 8 -4
14 -9 14 -8 0 -25 38 -39 90 -2 8 -5 124 -6 257 -2 168 1 240 8 235 6 -3 6 1
-1 9 -15 18 -14 79 1 98 8 11 8 13 0 8 -7 -4 -11 11 -12 48 0 30 3 55 7 55 4
0 8 12 8 28 0 34 22 92 35 92 5 0 7 4 4 9 -3 5 1 11 9 15 8 3 15 12 15 21 0 8
7 15 15 15 8 0 15 5 15 10 0 6 7 10 15 10 8 0 15 4 15 10 0 5 26 17 59 27 65
20 245 28 234 10z"/>
<path d="M686 1359 c3 -5 2 -9 -3 -9 -4 0 -8 -156 -8 -348 l1 -347 44 0 45 0
-2 240 c-1 132 -3 259 -6 282 -3 23 -2 44 1 47 7 8 42 -96 36 -106 -3 -5 0 -8
5 -8 6 0 11 -8 11 -18 0 -10 6 -26 14 -37 7 -11 14 -24 14 -30 3 -26 27 -95
34 -95 4 0 7 -3 7 -7 -3 -17 14 -73 22 -73 5 0 8 -3 7 -7 -4 -18 27 -100 45
-118 11 -11 16 -13 11 -5 -6 12 -5 13 7 3 18 -15 39 0 39 27 0 9 4 20 8 26 5
5 24 54 42 109 18 55 37 103 42 106 6 3 9 8 8 10 -3 6 21 93 29 104 4 6 13 29
21 53 7 23 16 42 21 42 11 0 6 -534 -6 -542 -5 -4 14 -8 43 -8 l52 0 0 354 c0
226 -4 357 -10 361 -5 3 -10 0 -10 -7 0 -10 -2 -10 -9 1 -6 9 -11 10 -15 2 -5
-8 -13 -8 -27 -1 -14 8 -19 7 -19 -2 0 -10 -2 -10 -9 0 -6 10 -10 6 -16 -15
-11 -36 -10 -33 -23 -66 -7 -16 -12 -33 -12 -39 0 -5 -6 -24 -14 -41 -8 -18
-29 -77 -47 -132 -19 -55 -38 -103 -44 -107 -6 -5 -4 -8 5 -8 12 0 12 -2 2 -9
-7 -4 -15 -14 -16 -22 -2 -8 -6 -22 -9 -31 -4 -10 -10 -26 -13 -35 -6 -15 -9
-13 -17 10 -6 15 -14 27 -19 27 -4 0 -5 7 -1 16 3 9 2 19 -3 23 -12 8 -70 182
-66 195 2 6 0 8 -4 4 -7 -8 -74 181 -74 209 0 8 -4 11 -10 8 -5 -3 -10 2 -10
12 0 15 -2 16 -10 3 -5 -8 -10 -10 -10 -4 0 6 -7 11 -15 11 -8 0 -15 -4 -15
-9 0 -5 -6 -6 -12 -1 -19 11 -39 13 -32 2z m511 -134 c0 -8 -7 -15 -15 -15
-12 0 -12 3 -2 15 7 8 13 15 15 15 1 0 2 -7 2 -15z"/>
</g>
</svg>
